<?xml version="1.0" encoding="UTF-8" standalone="no"?>
<svg
   xmlns:dc="http://purl.org/dc/elements/1.1/"
   xmlns:cc="http://creativecommons.org/ns#"
   xmlns:rdf="http://www.w3.org/1999/02/22-rdf-syntax-ns#"
   xmlns:svg="http://www.w3.org/2000/svg"
   xmlns="http://www.w3.org/2000/svg"
   xmlns:xlink="http://www.w3.org/1999/xlink"
   xmlns:sodipodi="http://sodipodi.sourceforge.net/DTD/sodipodi-0.dtd"
   xmlns:inkscape="http://www.inkscape.org/namespaces/inkscape"
   width="450"
   height="580"
   version="1"
   viewBox="0 0 414.772 500.994"
   id="svg1521"
   sodipodi:docname="MorseTranslation.svg"
   inkscape:version="0.92.3 (2405546, 2018-03-11)">
  <metadata
     id="metadata1527">
    <rdf:RDF>
      <cc:Work
         rdf:about="">
        <dc:format>image/svg+xml</dc:format>
        <dc:type
           rdf:resource="http://purl.org/dc/dcmitype/StillImage" />
      </cc:Work>
    </rdf:RDF>
  </metadata>
  <defs
     id="defs1525" />
  <sodipodi:namedview
     pagecolor="#ffffff"
     bordercolor="#666666"
     borderopacity="1"
     objecttolerance="10"
     gridtolerance="10"
     guidetolerance="10"
     inkscape:pageopacity="0"
     inkscape:pageshadow="2"
     inkscape:window-width="1600"
     inkscape:window-height="845"
     id="namedview1523"
     showgrid="false"
     inkscape:zoom="1.1655172"
     inkscape:cx="145.22208"
     inkscape:cy="290.77228"
     inkscape:window-x="-8"
     inkscape:window-y="-8"
     inkscape:window-maximized="1"
     inkscape:current-layer="svg1521" />
  <g
     font-family="Special Elite,Sans-Serif"
     id="g1190">
    <text
       x="115.249"
       y="10.538"
       font-size="22"
       id="text1172">
            How to Interpret
        </text>
    <text
       x="54.052"
       y="38.502"
       font-size="10"
       id="text1176">
      <tspan
         x="54.052"
         y="38.502"
         id="tspan1174" />
    </text>
    <text
       x="54.052"
       y="38.502"
       font-size="10"
       id="text1178" />
    <text
       x="40.912"
       y="55.327"
       font-size="15"
       font-weight="400"
       letter-spacing="0"
       transform="matrix(.92172 0 0 .92172 0 -16.8)"
       word-spacing="0"
       style="line-height:125%"
       id="text1188">
      <tspan
         x="40.912"
         y="55.327"
         id="tspan1180">1. A short flash represents a dot.</tspan>
      <tspan
         x="40.912"
         y="75.077"
         id="tspan1182">2. A long flash represents a dash.</tspan>
      <tspan
         x="40.912"
         y="95.827"
         id="tspan1184">3. There is a long gap between letters.</tspan>
      <tspan
         x="40.912"
         y="115.577"
         id="tspan1186">4. There is a very long gap before the word repeats.</tspan>
    </text>
  </g>
  <g
     transform="translate(-22.25)"
     id="g1250">
    <circle
       cx="39.4"
       cy="141.48"
       r="3.555"
       transform="matrix(1.29636 0 0 1.29636 202.386 -57.34)"
       id="circle1192" />
    <path
       d="M285.732 121.457h27.651v9.217h-27.651z"
       id="path1194" />
    <circle
       cx="39.4"
       cy="141.48"
       r="3.555"
       transform="matrix(1.29636 0 0 1.29636 220.82 -57.34)"
       id="circle1196" />
    <circle
       cx="39.4"
       cy="141.48"
       r="3.555"
       transform="matrix(1.29636 0 0 1.29636 202.386 -38.906)"
       id="circle1198" />
    <circle
       cx="39.4"
       cy="141.48"
       r="3.555"
       transform="matrix(1.29636 0 0 1.29636 220.82 -38.906)"
       id="circle1200" />
    <circle
       cx="39.4"
       cy="141.48"
       r="3.555"
       transform="matrix(1.29636 0 0 1.29636 239.255 -38.906)"
       id="circle1202" />
    <path
       d="M304.166 139.891h27.651v9.217h-27.651z"
       id="path1204" />
    <circle
       cx="39.4"
       cy="141.48"
       r="3.555"
       transform="matrix(1.29636 0 0 1.29636 202.386 -20.472)"
       id="circle1206" />
    <path
       d="M267.298 158.325h27.651v9.217h-27.651z"
       id="path1208" />
    <path
       d="M304.166 158.325h27.651v9.217h-27.651z"
       id="path1210" />
    <path
       d="M248.863 176.76h27.651v9.217h-27.651z"
       id="path1212" />
    <circle
       cx="39.4"
       cy="141.48"
       r="3.555"
       transform="matrix(1.29636 0 0 1.29636 239.255 -2.038)"
       id="circle1214" />
    <circle
       cx="39.4"
       cy="141.48"
       r="3.555"
       transform="matrix(1.29636 0 0 1.29636 257.689 -2.038)"
       id="circle1216" />
    <path
       d="M322.6 176.76h27.651v9.217H322.6z"
       id="path1218" />
    <path
       d="M248.863 195.194h27.651v9.217h-27.651z"
       id="path1220" />
    <path
       d="M304.166 195.194h27.651v9.217h-27.651z"
       id="path1222" />
    <path
       d="M341.035 195.194h27.651v9.217h-27.651z"
       id="path1224" />
    <circle
       cx="39.4"
       cy="141.48"
       r="3.555"
       transform="matrix(1.29636 0 0 1.29636 239.255 16.397)"
       id="circle1226" />
    <path
       d="M248.863 213.628h27.651v9.217h-27.651z"
       id="path1228" />
    <path
       d="M285.732 213.628h27.651v9.217h-27.651z"
       id="path1230" />
    <circle
       cx="39.4"
       cy="141.48"
       r="3.555"
       transform="matrix(1.29636 0 0 1.29636 276.123 34.831)"
       id="circle1232" />
    <circle
       cx="39.4"
       cy="141.48"
       r="3.555"
       transform="matrix(1.29636 0 0 1.29636 294.557 34.831)"
       id="circle1234" />
    <g
       font-family="Special Elite,Sans-Serif"
       font-size="18"
       id="g1248">
      <text
         x="231.225"
         y="130.674"
         transform="translate(-1.85)"
         id="text1236">
                U
            </text>
      <text
         x="231.748"
         y="149.108"
         transform="translate(-1.85)"
         id="text1238">
                V
            </text>
      <text
         x="229.155"
         y="167.318"
         transform="translate(-1.85)"
         id="text1240">
                W
            </text>
      <text
         x="231.734"
         y="185.977"
         transform="translate(-1.85)"
         id="text1242">
                X
            </text>
      <text
         x="231.761"
         y="204.411"
         transform="translate(-1.85)"
         id="text1244">
                Y
            </text>
      <text
         x="232.279"
         y="222.846"
         transform="translate(-1.85)"
         id="text1246">
                Z
            </text>
    </g>
  </g>
  <g
     transform="translate(-3.816)"
     id="g1412">
    <circle
       id="c"
       cx="39.4"
       cy="141.48"
       r="3.555"
       transform="matrix(1.29636 0 0 1.29636 -9.609 -57.34)" />
    <path
       id="a"
       d="M55.303 121.457h27.651v9.217H55.303z" />
    <circle
       cx="39.4"
       cy="141.48"
       r="3.555"
       transform="matrix(1.29636 0 0 1.29636 27.496 -38.906)"
       id="circle1254" />
    <circle
       cx="39.4"
       cy="141.48"
       r="3.555"
       transform="matrix(1.29636 0 0 1.29636 45.694 -38.611)"
       id="circle1256" />
    <circle
       cx="39.4"
       cy="141.48"
       r="3.555"
       transform="matrix(1.29636 0 0 1.29636 64.123 -38.906)"
       id="circle1258" />
    <path
       d="M36.869 158.325H64.52v9.217H36.869z"
       id="path1260" />
    <circle
       cx="39.4"
       cy="141.48"
       r="3.555"
       transform="matrix(1.29636 0 0 1.29636 27.231 -20.472)"
       id="circle1262" />
    <path
       d="M92.172 158.325h27.651v9.217H92.172z"
       id="path1264" />
    <circle
       cx="39.4"
       cy="141.48"
       r="3.555"
       transform="matrix(1.29636 0 0 1.29636 82.624 -20.472)"
       id="circle1266" />
    <path
       d="M36.869 176.76H64.52v9.217H36.869z"
       id="path1268" />
    <circle
       cx="39.4"
       cy="141.48"
       r="3.555"
       transform="matrix(1.29636 0 0 1.29636 27.172 -2.038)"
       id="circle1270" />
    <circle
       cx="39.4"
       cy="141.48"
       r="3.555"
       transform="matrix(1.29636 0 0 1.29636 45.694 -1.86)"
       id="circle1272" />
    <circle
       cx="39.4"
       cy="141.48"
       r="3.555"
       transform="matrix(1.29636 0 0 1.29636 -9.609 16.397)"
       id="circle1274" />
    <circle
       cx="39.4"
       cy="141.48"
       r="3.555"
       transform="matrix(1.29636 0 0 1.29636 -9.609 34.831)"
       id="circle1276" />
    <circle
       cx="39.4"
       cy="141.48"
       r="3.555"
       transform="matrix(1.29636 0 0 1.29636 8.826 34.831)"
       id="circle1278" />
    <path
       d="M73.737 213.628h27.651v9.217H73.737z"
       id="path1280" />
    <circle
       cx="39.4"
       cy="141.48"
       r="3.555"
       transform="matrix(1.29636 0 0 1.29636 64.129 34.831)"
       id="circle1282" />
    <path
       d="M36.869 232.063H64.52v9.217H36.869z"
       id="path1284" />
    <path
       d="M73.737 232.063h27.651v9.217H73.737z"
       id="path1286" />
    <circle
       cx="39.4"
       cy="141.48"
       r="3.555"
       transform="matrix(1.29636 0 0 1.29636 64.129 53.265)"
       id="circle1288" />
    <circle
       cx="39.4"
       cy="141.48"
       r="3.555"
       transform="matrix(1.29636 0 0 1.29636 -9.609 71.7)"
       id="circle1290" />
    <circle
       cx="39.4"
       cy="141.48"
       r="3.555"
       transform="matrix(1.29636 0 0 1.29636 8.826 71.7)"
       id="circle1292" />
    <circle
       cx="39.4"
       cy="141.48"
       r="3.555"
       transform="matrix(1.29636 0 0 1.29636 27.26 71.7)"
       id="circle1294" />
    <circle
       cx="39.4"
       cy="141.48"
       r="3.555"
       transform="matrix(1.29636 0 0 1.29636 45.694 71.7)"
       id="circle1296" />
    <circle
       cx="39.4"
       cy="141.48"
       r="3.555"
       transform="matrix(1.29636 0 0 1.29636 -9.609 90.134)"
       id="circle1298" />
    <circle
       cx="39.4"
       cy="141.48"
       r="3.555"
       transform="matrix(1.29636 0 0 1.29636 8.826 90.134)"
       id="circle1300" />
    <circle
       cx="39.4"
       cy="141.48"
       r="3.555"
       transform="matrix(1.29636 0 0 1.29636 -9.609 108.568)"
       id="circle1302" />
    <path
       d="M55.303 287.366h27.651v9.217H55.303z"
       id="path1304" />
    <path
       d="M92.172 287.366h27.651v9.217H92.172z"
       id="path1306" />
    <path
       d="M129.04 287.366h27.651v9.217H129.04z"
       id="path1308" />
    <path
       d="M36.869 305.8H64.52v9.217H36.869z"
       id="path1310" />
    <circle
       cx="39.4"
       cy="141.48"
       r="3.555"
       transform="matrix(1.29636 0 0 1.29636 27.26 127.003)"
       id="circle1312" />
    <path
       d="M92.172 305.8h27.651v9.217H92.172z"
       id="path1314" />
    <circle
       cx="39.4"
       cy="141.48"
       r="3.555"
       transform="matrix(1.29636 0 0 1.29636 -9.609 145.437)"
       id="circle1316" />
    <path
       d="M55.303 324.234h27.651v9.217H55.303z"
       id="path1318" />
    <circle
       cx="39.4"
       cy="141.48"
       r="3.555"
       transform="matrix(1.29636 0 0 1.29636 45.694 145.437)"
       id="circle1320" />
    <circle
       cx="39.4"
       cy="141.48"
       r="3.555"
       transform="matrix(1.29636 0 0 1.29636 64.129 145.437)"
       id="circle1322" />
    <path
       d="M36.869 342.669H64.52v9.217H36.869z"
       id="path1324" />
    <path
       d="M73.737 342.669h27.651v9.217H73.737z"
       id="path1326" />
    <path
       d="M36.869 361.103H64.52v9.217H36.869z"
       id="path1328" />
    <circle
       cx="39.4"
       cy="141.48"
       r="3.555"
       transform="matrix(1.29636 0 0 1.29636 27.26 182.306)"
       id="circle1330" />
    <path
       d="M36.869 379.537H64.52v9.217H36.869z"
       id="path1332" />
    <path
       d="M73.737 379.537h27.651v9.217H73.737z"
       id="path1334" />
    <path
       d="M110.606 379.537h27.651v9.217h-27.651z"
       id="path1336" />
    <circle
       cx="39.4"
       cy="141.48"
       r="3.555"
       transform="matrix(1.29636 0 0 1.29636 -9.609 219.174)"
       id="circle1338" />
    <path
       d="M55.303 397.971h27.651v9.217H55.303z"
       id="path1340" />
    <path
       d="M92.172 397.971h27.651v9.217H92.172z"
       id="path1342" />
    <circle
       cx="39.4"
       cy="141.48"
       r="3.555"
       transform="matrix(1.29636 0 0 1.29636 82.563 219.174)"
       id="circle1344" />
    <path
       d="M36.869 416.406H64.52v9.217H36.869z"
       id="path1346" />
    <path
       d="M73.737 416.406h27.651v9.217H73.737z"
       id="path1348" />
    <circle
       cx="39.4"
       cy="141.48"
       r="3.555"
       transform="matrix(1.29636 0 0 1.29636 64.129 237.609)"
       id="circle1350" />
    <path
       d="M129.04 416.406h27.651v9.217H129.04z"
       id="path1352" />
    <circle
       cx="39.4"
       cy="141.48"
       r="3.555"
       transform="matrix(1.29636 0 0 1.29636 -9.609 256.043)"
       id="circle1354" />
    <path
       d="M55.303 434.84h27.651v9.217H55.303z"
       id="path1356" />
    <circle
       cx="39.4"
       cy="141.48"
       r="3.555"
       transform="matrix(1.29636 0 0 1.29636 45.694 256.043)"
       id="circle1358" />
    <circle
       cx="39.4"
       cy="141.48"
       r="3.555"
       transform="matrix(1.29636 0 0 1.29636 27.26 274.477)"
       id="circle1360" />
    <circle
       cx="39.4"
       cy="141.48"
       r="3.555"
       transform="matrix(1.29636 0 0 1.29636 8.826 274.477)"
       id="circle1362" />
    <circle
       cx="39.4"
       cy="141.48"
       r="3.555"
       transform="matrix(1.29636 0 0 1.29636 -9.609 274.477)"
       id="circle1364" />
    <path
       d="M36.869 471.709H64.52v9.217H36.869z"
       id="path1366" />
    <g
       font-family="Special Elite,Sans-Serif"
       font-size="18"
       id="g1408">
      <text
         x="17.138"
         y="130.674"
         id="text1368">
                A
            </text>
      <text
         x="16.954"
         y="149.108"
         id="text1370">
                B
            </text>
      <text
         x="16.535"
         y="167.318"
         id="text1372">
                C
            </text>
      <text
         x="16.409"
         y="185.977"
         id="text1374">
                D
            </text>
      <text
         x="16.904"
         y="204.411"
         id="text1376">
                E
            </text>
      <text
         x="17.323"
         y="222.846"
         id="text1378">
                F
            </text>
      <text
         x="16.202"
         y="241.055"
         id="text1380">
                G
            </text>
      <text
         x="16.634"
         y="259.714"
         id="text1382">
                H
            </text>
      <text
         x="20.694"
         y="278.148"
         id="text1384">
                I
            </text>
      <text
         x="19.145"
         y="296.583"
         id="text1386">
                J
            </text>
      <text
         x="16.481"
         y="315.017"
         id="text1388">
                K
            </text>
      <text
         x="17.813"
         y="333.451"
         id="text1390">
                L
            </text>
      <text
         x="15.621"
         y="351.886"
         id="text1392">
                M
            </text>
      <text
         x="16.684"
         y="370.32"
         id="text1394">
                N
            </text>
      <text
         x="16.085"
         y="388.754"
         id="text1396">
                O
            </text>
      <text
         x="16.058"
         y="425.623"
         id="text1398">
                Q
            </text>
      <text
         x="16.828"
         y="407.189"
         id="text1400">
                P
            </text>
      <text
         x="16.022"
         y="444.057"
         id="text1402">
                R
            </text>
      <text
         x="17.206"
         y="462.492"
         id="text1404">
                S
            </text>
      <text
         x="17.624"
         y="480.926"
         id="text1406">
                T
            </text>
    </g>
    <use
       width="414.772"
       height="500.994"
       transform="translate(-18.434 18.434)"
       xlink:href="#a"
       id="use1410" />
  </g>
  <g
     transform="translate(-22.25 64.295)"
     id="g1519">
    <use
       id="z"
       width="414.772"
       height="500.994"
       transform="translate(211.995 119.823)"
       xlink:href="#a" />
    <use
       id="b"
       width="414.772"
       height="500.994"
       transform="translate(248.863 119.823)"
       xlink:href="#a" />
    <use
       id="A"
       width="414.772"
       height="500.994"
       xlink:href="#b" />
    <use
       id="B"
       width="414.772"
       height="500.994"
       transform="translate(285.732 119.823)"
       xlink:href="#a" />
    <use
       id="C"
       width="414.772"
       height="500.994"
       transform="translate(322.6 119.823)"
       xlink:href="#a" />
    <use
       width="414.772"
       height="500.994"
       transform="translate(211.995 119.823)"
       xlink:href="#c"
       id="use1419" />
    <use
       width="414.772"
       height="500.994"
       transform="translate(211.995 138.257)"
       xlink:href="#c"
       id="use1421" />
    <use
       width="414.772"
       height="500.994"
       transform="translate(230.429 138.257)"
       xlink:href="#c"
       id="use1423" />
    <use
       id="f"
       width="414.772"
       height="500.994"
       transform="translate(230.429 138.257)"
       xlink:href="#a" />
    <use
       width="414.772"
       height="500.994"
       transform="translate(267.298 138.257)"
       xlink:href="#a"
       id="use1426" />
    <use
       width="414.772"
       height="500.994"
       transform="translate(304.166 138.257)"
       xlink:href="#a"
       id="use1428" />
    <use
       id="d"
       width="414.772"
       height="500.994"
       transform="translate(211.995 156.692)"
       xlink:href="#c" />
    <use
       id="e"
       width="414.772"
       height="500.994"
       transform="translate(18.434)"
       xlink:href="#d" />
    <use
       id="q"
       width="414.772"
       height="500.994"
       transform="translate(18.434)"
       xlink:href="#e" />
    <use
       id="g"
       width="414.772"
       height="500.994"
       transform="translate(18.434 18.434)"
       xlink:href="#f" />
    <use
       id="r"
       width="414.772"
       height="500.994"
       transform="translate(36.869)"
       xlink:href="#g" />
    <use
       id="h"
       width="414.772"
       height="500.994"
       transform="translate(0 18.434)"
       xlink:href="#d" />
    <use
       id="i"
       width="414.772"
       height="500.994"
       transform="translate(18.434)"
       xlink:href="#h" />
    <use
       id="j"
       width="414.772"
       height="500.994"
       transform="translate(18.434)"
       xlink:href="#i" />
    <use
       id="o"
       width="414.772"
       height="500.994"
       transform="translate(18.434)"
       xlink:href="#j" />
    <use
       id="p"
       width="414.772"
       height="500.994"
       transform="translate(18.434 18.434)"
       xlink:href="#g" />
    <use
       id="k"
       width="414.772"
       height="500.994"
       transform="translate(0 18.434)"
       xlink:href="#h" />
    <use
       id="l"
       width="414.772"
       height="500.994"
       transform="translate(18.434)"
       xlink:href="#k" />
    <use
       id="m"
       width="414.772"
       height="500.994"
       transform="translate(18.434)"
       xlink:href="#l" />
    <use
       id="n"
       width="414.772"
       height="500.994"
       transform="translate(18.434)"
       xlink:href="#m" />
    <use
       width="414.772"
       height="500.994"
       transform="translate(18.434)"
       xlink:href="#n"
       id="use1444" />
    <use
       width="414.772"
       height="500.994"
       transform="translate(36.869 36.869)"
       xlink:href="#h"
       id="use1446" />
    <use
       width="414.772"
       height="500.994"
       transform="translate(36.869 36.869)"
       xlink:href="#i"
       id="use1448" />
    <use
       width="414.772"
       height="500.994"
       transform="translate(36.869 36.869)"
       xlink:href="#j"
       id="use1450" />
    <use
       width="414.772"
       height="500.994"
       transform="translate(36.869 36.869)"
       xlink:href="#o"
       id="use1452" />
    <use
       width="414.772"
       height="500.994"
       transform="translate(-73.737 36.869)"
       xlink:href="#p"
       id="use1454" />
    <use
       width="414.772"
       height="500.994"
       xlink:href="#d"
       id="use1456" />
    <use
       width="414.772"
       height="500.994"
       xlink:href="#e"
       id="use1458" />
    <use
       width="414.772"
       height="500.994"
       xlink:href="#q"
       id="use1460" />
    <use
       id="s"
       width="414.772"
       height="500.994"
       xlink:href="#g" />
    <use
       id="t"
       width="414.772"
       height="500.994"
       xlink:href="#r" />
    <use
       id="u"
       width="414.772"
       height="500.994"
       transform="translate(73.737 73.737)"
       xlink:href="#d" />
    <use
       id="v"
       width="414.772"
       height="500.994"
       transform="translate(73.737 73.737)"
       xlink:href="#e" />
    <use
       width="414.772"
       height="500.994"
       transform="translate(73.737 73.737)"
       xlink:href="#q"
       id="use1466" />
    <use
       id="w"
       width="414.772"
       height="500.994"
       transform="translate(-55.303 73.737)"
       xlink:href="#s" />
    <use
       id="x"
       width="414.772"
       height="500.994"
       transform="translate(-55.303 73.737)"
       xlink:href="#t" />
    <use
       width="414.772"
       height="500.994"
       transform="translate(36.869 18.434)"
       xlink:href="#u"
       id="use1470" />
    <use
       id="E"
       width="414.772"
       height="500.994"
       transform="translate(36.869 18.434)"
       xlink:href="#v" />
    <use
       id="y"
       width="414.772"
       height="500.994"
       transform="translate(36.869 18.434)"
       xlink:href="#w" />
    <use
       width="414.772"
       height="500.994"
       transform="translate(36.869 18.434)"
       xlink:href="#x"
       id="use1474" />
    <use
       width="414.772"
       height="500.994"
       transform="translate(-36.869)"
       xlink:href="#y"
       id="use1476" />
    <use
       id="F"
       width="414.772"
       height="500.994"
       transform="translate(-18.434 147.475)"
       xlink:href="#z" />
    <use
       id="G"
       width="414.772"
       height="500.994"
       transform="translate(-18.434 147.475)"
       xlink:href="#b" />
    <use
       id="H"
       width="414.772"
       height="500.994"
       transform="translate(-18.434 147.475)"
       xlink:href="#A" />
    <use
       id="I"
       width="414.772"
       height="500.994"
       transform="translate(-18.434 147.475)"
       xlink:href="#B" />
    <use
       id="D"
       width="414.772"
       height="500.994"
       transform="translate(-18.434 147.475)"
       xlink:href="#C" />
    <use
       width="414.772"
       height="500.994"
       transform="translate(-110.606 18.434)"
       xlink:href="#D"
       id="use1483" />
    <use
       width="414.772"
       height="500.994"
       transform="translate(18.434 18.434)"
       xlink:href="#E"
       id="use1485" />
    <use
       width="414.772"
       height="500.994"
       transform="translate(36.869 18.434)"
       xlink:href="#F"
       id="use1487" />
    <use
       width="414.772"
       height="500.994"
       transform="translate(36.869 18.434)"
       xlink:href="#G"
       id="use1489" />
    <use
       width="414.772"
       height="500.994"
       transform="translate(36.869 18.434)"
       xlink:href="#H"
       id="use1491" />
    <use
       width="414.772"
       height="500.994"
       transform="translate(36.869 18.434)"
       xlink:href="#I"
       id="use1493" />
    <use
       width="414.772"
       height="500.994"
       transform="translate(36.869 18.434)"
       xlink:href="#D"
       id="use1495" />
    <g
       font-family="Special Elite,Sans-Serif"
       font-size="18"
       id="g1517">
      <text
         x="231.757"
         y="250.497"
         id="text1497">
                1
            </text>
      <text
         x="231.284"
         y="268.931"
         id="text1499">
                2
            </text>
      <text
         x="231.099"
         y="287.141"
         id="text1501">
                3
            </text>
      <text
         x="231.397"
         y="305.8"
         id="text1503">
                4
            </text>
      <text
         x="231.054"
         y="324.234"
         id="text1505">
                5
            </text>
      <text
         x="231.144"
         y="342.669"
         id="text1507">
                6
            </text>
      <text
         x="231.05"
         y="360.878"
         id="text1509">
                7
            </text>
      <text
         x="231.099"
         y="379.537"
         id="text1511">
                8
            </text>
      <text
         x="231.09"
         y="397.971"
         id="text1513">
                9
            </text>
      <text
         x="231.126"
         y="416.406"
         id="text1515">
                0
            </text>
    </g>
  </g>
</svg>
